# xmcd CD database file
#
# Track frame offsets:
#	150
#	11092
#	28325
#	39827
#	56389
#	71052
#	83979
#	96675
#	108957
#	118205
#	134277
#	147975
#	162975
#	174625
#	184960
#	197887
#	212847
#	223370
#	233037
#	245100
#	260117
#	286592
#	297217
#	312345
#
# Disc length: 4299 seconds
#
# Revision: 0
# Processed by: cddbd v1.5.1PL0 Copyright (c) Steve Scherf et al.
# Submitted via: CDex 1.51
#
DISCID=8110c918
DTITLE=Various Artist - Country pohoda 2
DYEAR=2002
DGENRE=Country
TTITLE0=Michal Tucny a Greenhorns/Toulavej song
TTITLE1=Jiri Grossmann/Jako kote si prist
TTITLE2=Rangers/Vecny je ricni proud
TTITLE3=Pavel Brumer a Fesaci/Zvony
TTITLE4=Ladislav Vodicka/Vinen
TTITLE5=Petr Novotny a Greenhorns/Je vsechno O. K. 
TTITLE6=Mirek Hoffman a Greenhorns/Blues hvizdaveho vlaku
TTITLE7=Nada Urbankova/Andelska Berta
TTITLE8=Karel Zich/Ker ma kvest
TTITLE9=Wabi Danek/Cim vetsi bloud, tim vetsi pad
TTITLE10=Petr Spaleny/Nahodou jsme tu chvili 
TTITLE11=Pavel Bobek/Z nebe pada ranni dest
TTITLE12=Vera Martinova/Ptaci nareci
TTITLE13=Jiri Grossmann/Jim Bridger
TTITLE14=Tomas Linka a Fesaci/Kovbojove a klauni
TTITLE15=Michal Tucny a Fesaci/Davej vinu dalkam
TTITLE16=Waldemar Matuska a KTO/Ten zivot za to stal
TTITLE17=Nada Urbankova/Skala
TTITLE18=Petr Spaleny/Citim ten kour
TTITLE19=Pavel Brumer a Cadillac/Konecna
TTITLE20=Karel Zich/Penzion Blues
TTITLE21=Ladislav Vodicka/Ja smyl spinu rosou pruhlednou
TTITLE22=Pavel Bobek/Ja ti zpivam
TTITLE23=Rangers/Ta zem je tva zem
EXTD=YEAR: 2002
EXTT0=
EXTT1=
EXTT2=
EXTT3=
EXTT4=
EXTT5=
EXTT6=
EXTT7=
EXTT8=
EXTT9=
EXTT10=
EXTT11=
EXTT12=
EXTT13=
EXTT14=
EXTT15=
EXTT16=
EXTT17=
EXTT18=
EXTT19=
EXTT20=
EXTT21=
EXTT22=
EXTT23=
PLAYORDER=
